{"title":"Mughal-E-Azam Video Jukebox_Bollywood(Hindi).1080p","uid":13511301,"size":1016043926,"categoryP":"video","categoryS":"music_videos","magnet":"?xt=urn:btih:a6fbd2a6bbaa9dba719a1655b0b496677cf19a45&amp;dn=Mughal-E-Azam+Video+Jukebox_Bollywood%28Hindi%29.1080p&amp;tr=udp%3A%2F%2Ftracker.leechers-paradise.org%3A6969&amp;tr=udp%3A%2F%2Fzer0day.ch%3A1337&amp;tr=udp%3A%2F%2Fopen.demonii.com%3A1337&amp;tr=udp%3A%2F%2Ftracker.coppersurfer.tk%3A6969&amp;tr=udp%3A%2F%2Fexodus.desync.com%3A6969","seeders":0,"leechers":1,"uploader":"Dhruv13","files":2,"time":1455286671,"description":"Video:-\r\nID                                       : 1\r\nFormat                                   : AVC\r\nFormat/Info                              : Advanced Video Codec\r\nFormat profile                           :   \r\nFormat settings, CABAC                   : Yes\r\nFormat settings, ReFrames                : 3 frames\r\nCodec ID                                 : avc1\r\nCodec ID/Info                            : Advanced Video Coding\r\nDuration                                 : 47mn 44s\r\nBit rate                                 : 2 706 Kbps\r\nWidth                                    : 1 920 pixels\r\nHeight                                   : 1 080 pixels\r\nDisplay aspect ratio                     : 16:9\r\nFrame rate mode                          : Constant\r\nFrame rate                               : 25.000 fps\r\nColor space                              : YUV\r\nChroma subsampling                       : 4:2:0\r\nBit depth                                : 8 bits\r\nScan type                                : Progressive\r\nBits/(Pixel*Frame)                       : 0.052\r\nStream size                              : 924 MiB (95%)\r\n\r\n\r\nAudio:-\r\nID                                       : 2\r\nFormat                                   : AAC\r\nFormat/Info                              : Advanced Audio Codec\r\nFormat profile                           : LC\r\nCodec ID                                 : 40\r\nDuration                                 : 47mn 44s\r\nBit rate mode                            : Constant\r\nBit rate                                 : 126 Kbps\r\nChannel(s)                               : 2 channels\r\nChannel positions                        : Front: L R\r\nSampling rate                            : 44.1 KHz\r\nFrame rate                               : 43.066 fps (1024 spf)\r\nCompression mode                         : Lossy\r\nStream size                              : 42.9 MiB (4%)\r\nDefault                                  : Yes\r\nAlternate group                          : 1","torrent":{"xt":"urn:btih:a6fbd2a6bbaa9dba719a1655b0b496677cf19a45","amp;dn":"Mughal-E-Azam+Video+Jukebox_Bollywood%28Hindi%29.1080p","amp;tr":["udp%3A%2F%2Ftracker.leechers-paradise.org%3A6969","udp%3A%2F%2Fzer0day.ch%3A1337","udp%3A%2F%2Fopen.demonii.com%3A1337","udp%3A%2F%2Ftracker.coppersurfer.tk%3A6969","udp%3A%2F%2Fexodus.desync.com%3A6969"],"infoHash":"a6fbd2a6bbaa9dba719a1655b0b496677cf19a45","infoHashBuffer":{"type":"Buffer","data":[166,251,210,166,187,170,157,186,113,154,22,85,176,180,150,103,124,241,154,69]},"announce":[],"urlList":[]}}